<?xml version="1.0" encoding="UTF-8"?>
<svg version="1.1" xmlns="http://www.w3.org/2000/svg" width="512" height="512">
<path d="M0 0 C1.29174228 -0.00623996 2.58348455 -0.01247993 3.91437054 -0.01890898 C7.47970142 -0.0355335 11.0446014 -0.0273877 14.60993338 -0.0149641 C18.46277306 -0.00588753 22.31554033 -0.01989622 26.16836548 -0.03088379 C33.70808443 -0.04864587 41.24764387 -0.04483937 48.78736901 -0.03323323 C54.91647666 -0.02419006 61.04553969 -0.02297872 67.1746521 -0.02732849 C68.04784834 -0.02794142 68.92104457 -0.02855436 69.8207013 -0.02918586 C71.59472793 -0.0304648 73.36875454 -0.03176165 75.14278114 -0.03307623 C91.76761799 -0.04447525 108.39236654 -0.03137896 125.01718891 -0.00987476 C139.27395466 0.00799561 153.53059012 0.00489131 167.78735352 -0.0135498 C184.35376155 -0.03496849 200.92009224 -0.04337668 217.48651218 -0.03110075 C219.25391705 -0.02982659 221.02132192 -0.0285691 222.78872681 -0.02732849 C223.65826435 -0.02671139 224.5278019 -0.02609429 225.42368907 -0.02545848 C231.54357653 -0.02200858 237.66341483 -0.02782617 243.78329468 -0.0372467 C251.24407557 -0.04847916 258.70468818 -0.04540049 266.16544986 -0.02412373 C269.97017217 -0.01363001 273.77461418 -0.00946258 277.57933426 -0.02272034 C281.7075919 -0.03688764 285.83514521 -0.01994208 289.96337891 0 C291.16056392 -0.00892289 292.35774893 -0.01784577 293.59121227 -0.02703905 C303.75884816 0.06824115 310.75717575 2.71670467 318.19262695 9.64855957 C326.39825007 18.17667442 328.10164753 27.22715488 328.11311722 38.91066265 C328.11516985 39.62594972 328.11722249 40.3412368 328.11933732 41.07819924 C328.12498119 43.46940195 328.12355332 45.86054659 328.12213135 48.25175476 C328.12471648 49.98578546 328.12773005 51.71981556 328.13113475 53.45384485 C328.13919051 58.2149276 328.14099353 62.97599527 328.14173222 67.73708403 C328.14358523 72.87357526 328.15113377 78.0100587 328.15786743 83.14654541 C328.17144073 94.37591627 328.17747379 105.60528355 328.18187809 116.83466125 C328.18464197 123.84758756 328.18887956 130.8605125 328.19338226 137.87343788 C328.20557316 157.2942442 328.21587313 176.71504942 328.21925735 196.13585949 C328.21947692 197.37845924 328.21969649 198.62105898 328.21992271 199.90131326 C328.22014098 201.14686415 328.22035926 202.39241505 328.22058415 203.6757099 C328.22102762 206.19961878 328.22147418 208.72352765 328.22192383 211.24743652 C328.22214526 212.49937911 328.22236669 213.75132169 328.22259483 215.04120193 C328.22654299 235.32786 328.24399839 255.61448215 328.26728335 275.90112635 C328.29100246 296.73431595 328.30345945 317.56748753 328.30462527 338.40069085 C328.30554167 350.09569621 328.31128517 361.79065475 328.32944489 373.4856472 C328.34485333 383.44377952 328.34996188 393.40185055 328.34170678 403.35999253 C328.33780307 408.43891729 328.3387164 413.51771865 328.35276413 418.59662819 C328.36551935 423.2508625 328.36429127 427.90488089 328.35217342 432.55911497 C328.35021925 434.23811423 328.35328184 435.91712888 328.36201778 437.59610655 C328.43219801 452.00231852 327.50812071 463.75201345 317.0949707 474.44543457 C308.86621278 482.20536346 301.06020897 482.9505705 290.12832642 482.89561462 C288.19917831 482.90369293 288.19917831 482.90369293 286.23105752 482.91193444 C282.67686938 482.92635126 279.12291387 482.92215621 275.56871319 482.91476762 C271.72947722 482.91002886 267.89029106 482.92255208 264.05107117 482.93278503 C256.53563954 482.94996477 249.02029156 482.95081473 241.5048454 482.94557213 C235.3947965 482.94152751 229.28477229 482.94297746 223.17472458 482.94832039 C221.86932312 482.94944302 221.86932312 482.94944302 220.53754991 482.95058833 C218.76948448 482.95211984 217.00141907 482.95365819 215.23335366 482.9552033 C198.65953664 482.96892547 182.08576684 482.96349274 165.5119509 482.95201809 C150.35839688 482.94208695 135.204965 482.95502482 120.05142982 482.97895228 C104.4818047 483.00335102 88.91223645 483.01294919 73.3425926 483.00629956 C64.60542015 483.00280893 55.8683416 483.00502897 47.13118362 483.02255058 C39.69310584 483.03728228 32.25518809 483.03789543 24.81711341 483.02047967 C21.02441968 483.01197504 17.23201169 483.0098067 13.43933296 483.02513123 C9.32233096 483.04155982 5.20601654 483.02681358 1.08901978 483.00914001 C-0.10204357 483.01874502 -1.29310691 483.02835003 -2.52026308 483.0382461 C-12.7903912 482.94762408 -20.77661186 480.50327767 -28.26831055 473.34387207 C-38.56662058 462.53984145 -38.46103949 449.32591866 -38.39926147 435.12487793 C-38.40272325 433.38240485 -38.40749128 431.63993397 -38.41344321 429.89746761 C-38.42591148 425.13622273 -38.41980189 420.37515936 -38.41048455 415.61391401 C-38.40367725 410.46864084 -38.41418362 405.32339816 -38.42242432 400.1781311 C-38.43574591 390.1091768 -38.43289091 380.04028969 -38.42418639 369.97133279 C-38.41740407 361.78617061 -38.41649551 353.60102722 -38.41975784 345.41586304 C-38.42021754 344.24975115 -38.42067724 343.08363926 -38.42115087 341.88219064 C-38.42211007 339.51306382 -38.42308271 337.14393701 -38.42406864 334.77481019 C-38.43261793 312.57310223 -38.42279564 290.37143146 -38.40666755 268.16972959 C-38.39326479 249.13042773 -38.39559302 230.09118075 -38.40942383 211.05187988 C-38.42548778 188.92819726 -38.431794 166.80454721 -38.42258704 144.68085957 C-38.42163142 142.32057508 -38.4206883 139.9602906 -38.41975784 137.6000061 C-38.41929502 136.43877997 -38.41883219 135.27755383 -38.41835534 134.08113903 C-38.4157679 125.9082819 -38.42013115 117.73544548 -38.4271965 109.56259155 C-38.43562074 99.59908166 -38.43331189 89.63564264 -38.41735427 79.67214084 C-38.40948404 74.59116259 -38.4063587 69.51030241 -38.41630173 64.4293251 C-38.42527493 59.77342946 -38.42027263 55.11776078 -38.40436907 50.46188557 C-38.40103237 48.78236715 -38.40269017 47.10282935 -38.40999644 45.42332351 C-38.46695253 31.23668288 -37.64622348 19.4048232 -27.3894043 8.82824707 C-19.19977253 1.18965782 -10.90749396 -0.08129598 0 0 Z M12.66918945 53.07043457 C12.17805664 53.66984863 11.68692383 54.2692627 11.1809082 54.88684082 C8.5882714 58.39154529 8.83769078 61.09526322 8.8046875 65.41687012 C8.7981163 66.12768234 8.7915451 66.83849457 8.78477478 67.57084656 C8.76502795 69.9287832 8.7533741 72.286656 8.7434082 74.64465332 C8.73933268 75.45049173 8.73525715 76.25633015 8.73105812 77.08658791 C8.71018812 81.35455698 8.69589236 85.62249385 8.68652344 89.89050293 C8.67547725 94.29104229 8.64110114 98.69107343 8.60135174 103.09143353 C8.57515083 106.48103244 8.56682838 109.87051114 8.56324196 113.26020241 C8.5583823 114.88165519 8.54678598 116.50310282 8.52820396 118.12445641 C8.50374495 120.40071652 8.50478948 122.67567392 8.51171875 124.95202637 C8.50585251 126.24505173 8.49998627 127.53807709 8.49394226 128.87028503 C9.22246115 134.30362516 11.39171509 137.95980164 15.35668945 141.82043457 C21.34085165 145.66739598 26.95003183 145.79696168 33.8366394 145.76863098 C35.31819194 145.7743693 35.31819194 145.7743693 36.82967484 145.78022355 C40.13674829 145.79053594 43.44364755 145.78656469 46.75073242 145.78259277 C49.12284506 145.78694022 51.49495629 145.79212348 53.86706543 145.79808044 C59.6401637 145.81008688 65.41320782 145.81262222 71.18631707 145.81028018 C75.88004677 145.80849579 80.57376237 145.81024925 85.26749039 145.81450462 C85.93600508 145.81509981 86.60451978 145.815695 87.2932925 145.81630823 C88.65147145 145.81752 90.00965039 145.81873414 91.36782934 145.8199506 C104.10019601 145.83082287 116.83253619 145.8286652 129.56490435 145.82256576 C141.20536594 145.81739749 152.84574383 145.82865019 164.48618887 145.84766398 C176.44647663 145.86705001 188.40672479 145.875297 200.36702836 145.87154073 C207.07865601 145.86962976 213.79021242 145.87210596 220.50182724 145.88625526 C226.81375455 145.8988237 233.12551425 145.89689863 239.43743896 145.88384438 C241.75294171 145.8814769 244.0684562 145.88421939 246.38394547 145.8924675 C249.54708235 145.90292185 252.70965554 145.89484434 255.87277222 145.88215637 C257.24409327 145.8932178 257.24409327 145.8932178 258.64311779 145.90450269 C265.05605186 145.85046323 270.9385418 145.04870301 276.0402832 140.78918457 C276.49532227 140.20137207 276.95036133 139.61355957 277.41918945 139.00793457 C278.12881836 138.12621582 278.12881836 138.12621582 278.8527832 137.22668457 C281.34236555 133.43631698 281.12506878 129.87502849 281.15869141 125.46960449 C281.1652626 124.75703995 281.1718338 124.0444754 281.17860413 123.31031799 C281.1983088 120.95301199 281.2099932 118.59576961 281.2199707 116.23840332 C281.22404623 115.43223383 281.22812176 114.62606434 281.23232079 113.79546547 C281.25316921 109.52864463 281.26747636 105.26185585 281.27685547 100.99499512 C281.28791892 96.59326598 281.3223212 92.19204249 281.36202717 87.79049206 C281.38819975 84.40093561 281.39654784 81.01149957 281.40013695 77.62185097 C281.40500107 75.9995717 281.4166102 74.37729775 281.43517494 72.75511742 C281.45958183 70.4811557 281.45859932 68.20850144 281.45166016 65.93444824 C281.4575264 64.64221848 281.46339264 63.34998871 281.46943665 62.01860046 C280.74004019 56.76861174 278.03013871 52.97323144 273.91918945 49.69543457 C270.40050414 47.07513699 268.05435431 46.38366621 263.78743267 46.37650681 C262.49865027 46.37074509 262.49865027 46.37074509 261.18383187 46.36486697 C259.76731881 46.3661667 259.76731881 46.3661667 258.32218933 46.36749268 C257.31930557 46.36452155 256.31642181 46.36155043 255.28314763 46.35848927 C251.9068557 46.34978512 248.53059915 46.34829258 245.15429688 46.34680176 C242.7399742 46.34217482 240.32565226 46.33715033 237.91133118 46.33175659 C231.3410684 46.31861911 224.770813 46.31214851 218.2005403 46.30774593 C214.09833061 46.30498362 209.99612328 46.30074628 205.89391518 46.29624176 C194.53691728 46.28404911 183.17992128 46.27374974 171.82291698 46.27036667 C171.09599935 46.2701471 170.36908172 46.26992754 169.62013628 46.26970132 C168.52714606 46.2693739 168.52714606 46.2693739 167.41207522 46.26903987 C165.93552411 46.2685964 164.45897299 46.26814984 162.98242188 46.2677002 C162.25000101 46.26747877 161.51758014 46.26725734 160.7629647 46.2670292 C148.89463788 46.26308103 137.02637244 46.24562643 125.15806933 46.22234067 C112.97414923 46.19862855 100.79025994 46.18616488 88.60631639 46.18499875 C81.76503393 46.18408192 74.92383146 46.17832756 68.08257103 46.16017914 C61.64841957 46.14317088 55.21437948 46.14152451 48.78021049 46.15031815 C46.4171025 46.15109055 44.05398645 46.14671924 41.6908989 46.13685989 C38.46779697 46.12419976 35.24523827 46.12998519 32.0221405 46.14044189 C31.08449063 46.13238549 30.14684076 46.12432909 29.18077725 46.11602855 C22.2767921 46.16850327 17.16499177 47.45977023 12.66918945 53.07043457 Z M22.57958984 200.63122559 C20.35044835 204.64436144 20.38826286 208.01185395 20.4152832 212.53527832 C20.40908463 213.40181534 20.40288605 214.26835236 20.39649963 215.16114807 C20.38941302 216.9892159 20.39255526 218.81734842 20.40527344 220.64538574 C20.41912998 223.43346708 20.38506564 226.21818383 20.34692383 229.00598145 C20.34597244 230.78658122 20.34783249 232.56718517 20.3527832 234.34777832 C20.33952499 235.17607651 20.32626678 236.00437469 20.31260681 236.85777283 C20.37946327 241.04120365 20.71779288 243.70669674 23.39599609 247.01794434 C26.5833766 250.08735174 27.90246841 250.63084809 32.16845703 250.66906738 C33.46539238 250.6834787 33.46539238 250.6834787 34.78852844 250.69818115 C35.72496689 250.70243103 36.66140533 250.70668091 37.6262207 250.71105957 C38.58815842 250.71675964 39.55009613 250.72245972 40.54118347 250.72833252 C42.57969053 250.7377897 44.61821292 250.74431934 46.65673828 250.74816895 C49.7711875 250.75786297 52.88497366 250.78887495 55.99926758 250.82043457 C57.97908136 250.82696573 59.95889988 250.83221576 61.9387207 250.83605957 C62.86908646 250.84840637 63.79945221 250.86075317 64.75801086 250.87347412 C71.4269189 250.89796582 71.4269189 250.89796582 76.98168945 247.50793457 C79.73918586 242.57893799 80.42933061 238.18813401 80.38012695 232.63293457 C80.38443222 231.5406958 80.38443222 231.5406958 80.38882446 230.4263916 C80.3908531 228.89692399 80.38540782 227.36742971 80.37280273 225.8380127 C80.35673034 223.51384772 80.37269094 221.19142128 80.3918457 218.86730957 C80.38986306 217.37251411 80.38601893 215.87771973 80.38012695 214.38293457 C80.38619965 213.69731445 80.39227234 213.01169434 80.39852905 212.30529785 C80.31779489 206.69122105 79.17721348 201.7034586 75.10668945 197.63293457 C70.34234782 195.11063606 65.13820055 195.33510952 59.86450195 195.30480957 C59.08912079 195.2991095 58.31373962 195.29340942 57.51486206 195.28753662 C55.87930655 195.27812022 54.24373235 195.27156605 52.6081543 195.2677002 C50.12164882 195.25799297 47.63597012 195.22693803 45.1496582 195.19543457 C43.55461099 195.18890349 41.95955791 195.18365343 40.36450195 195.17980957 C39.26103928 195.16128937 39.26103928 195.16128937 38.13528442 195.14239502 C32.01680027 195.16847469 27.28499132 196.47197397 22.57958984 200.63122559 Z M118.16918945 199.82043457 C113.39406697 205.68701363 114.76077558 213.94500612 114.74145508 221.17248535 C114.73174959 223.36932245 114.70068924 225.56522278 114.66918945 227.76184082 C114.66265792 229.17459574 114.65740804 230.58735728 114.65356445 232.00012207 C114.64421875 233.27226562 114.63487305 234.54440918 114.62524414 235.85510254 C115.13998643 241.13015326 116.58278117 244.88349711 120.05029297 248.91003418 C124.31216381 251.2331744 128.09959445 251.10019584 132.8840332 251.07434082 C133.8393544 251.0805394 134.7946756 251.08673798 135.77894592 251.09312439 C137.7953286 251.10021465 139.81176992 251.09706242 141.828125 251.08435059 C144.9058053 251.07049483 147.98043811 251.10455541 151.05786133 251.1427002 C153.02075269 251.14365155 154.98364785 251.14179168 156.9465332 251.13684082 C158.32022316 251.15672813 158.32022316 251.15672813 159.72166443 251.17701721 C163.92910736 251.1160071 167.05471701 250.93050229 170.48388672 248.34362793 C176.23705538 241.81219855 175.32230581 234.04651908 175.29736328 225.82287598 C175.29420805 223.64576907 175.31768145 221.47002974 175.34301758 219.29309082 C175.61620695 207.5416634 175.61620695 207.5416634 170.10668945 197.57043457 C165.27706448 195.15562208 160.12106292 195.3478933 154.8293457 195.33996582 C154.05159286 195.33663742 153.27384003 195.33330902 152.47251892 195.32987976 C150.83275949 195.32483283 149.19298985 195.32247074 147.55322266 195.32263184 C145.05589772 195.32044482 142.55901452 195.30226423 140.06176758 195.2833252 C138.46346179 195.28039083 136.86515391 195.27840632 135.2668457 195.27746582 C134.52604263 195.2702803 133.78523956 195.26309479 133.02198792 195.25569153 C127.09489523 195.28158847 122.7895735 196.02145213 118.16918945 199.82043457 Z M213.16918945 199.82043457 C208.37482516 205.71065356 209.79558148 213.97786011 209.79638672 221.22741699 C209.79419974 223.43505116 209.77601525 225.64218547 209.75708008 227.84973145 C209.75414559 229.26574538 209.75216117 230.68176166 209.7512207 232.09777832 C209.74711182 233.37515869 209.74300293 234.65253906 209.73876953 235.96862793 C210.06339287 240.69834107 210.85561313 244.20590882 213.98168945 247.82043457 C216.84849137 250.23929869 218.4837813 250.63865137 222.15258789 250.70080566 C223.01398376 250.71686859 223.87537964 250.73293152 224.76287842 250.7494812 C228.70917976 250.79398003 232.65531292 250.8350079 236.60180664 250.85803223 C238.68134768 250.87457772 240.76083217 250.90184907 242.84008789 250.94006348 C245.84071309 250.99492387 248.84000478 251.01672158 251.84106445 251.03137207 C252.76626892 251.05404144 253.69147339 251.07671082 254.64471436 251.10006714 C259.05712532 251.08567873 262.04417727 250.93687625 265.55297852 248.10021973 C270.88657099 242.40740862 269.32270189 234.07704219 269.38671875 226.6517334 C269.40826537 224.7729653 269.44232879 222.89429669 269.48925781 221.01599121 C269.55646661 218.30061227 269.58375295 215.5873107 269.6027832 212.87121582 C269.63061386 212.03866776 269.65844452 211.20611969 269.68711853 210.3483429 C269.66791419 204.8535671 268.48711312 201.74754895 264.59597778 197.80310059 C262.33770647 195.99125805 260.87967864 195.58823285 257.98168945 195.50793457 C256.73524658 195.45999756 255.48880371 195.41206055 254.20458984 195.3626709 C252.74621589 195.34939819 251.28777842 195.34215069 249.8293457 195.33996582 C249.05159286 195.33663742 248.27384003 195.33330902 247.47251892 195.32987976 C245.83275949 195.32483283 244.19298985 195.32247074 242.55322266 195.32263184 C240.05589772 195.32044482 237.55901452 195.30226423 235.06176758 195.2833252 C233.46346179 195.28039083 231.86515391 195.27840632 230.2668457 195.27746582 C229.52604263 195.2702803 228.78523956 195.26309479 228.02198792 195.25569153 C222.09489523 195.28158847 217.7895735 196.02145213 213.16918945 199.82043457 Z M22.19628906 291.12145996 C20.28769424 294.8715131 20.53393844 298.54175046 20.5480957 302.69152832 C20.54285385 303.584048 20.537612 304.47656769 20.5322113 305.39613342 C20.52579546 307.28145305 20.52712244 309.16681274 20.53564453 311.05212402 C20.54414978 313.93200215 20.51539563 316.80989321 20.48364258 319.6895752 C20.48203028 321.52355898 20.48260864 323.35754626 20.4855957 325.19152832 C20.47436172 326.04999863 20.46312775 326.90846893 20.45155334 327.79295349 C20.49745132 331.74409681 20.68086999 333.99027209 22.70019531 337.46520996 C27.70825653 341.94915306 32.59693657 341.81575409 39.0090332 341.80871582 C39.87557022 341.81300095 40.74210724 341.81728607 41.63490295 341.82170105 C43.46297331 341.82743 45.29106646 341.82795521 47.11914062 341.8236084 C49.90640382 341.82044906 52.69260425 341.84392289 55.47973633 341.8692627 C57.26033395 341.871536 59.04093442 341.87223904 60.8215332 341.87121582 C61.64983139 341.88042557 62.47812958 341.88963531 63.33152771 341.89912415 C68.29431468 341.85970736 71.66581442 341.22303343 75.98168945 338.50793457 C80.30804707 333.88320746 80.14817761 328.96178512 80.18481445 322.89074707 C80.19336456 321.78858353 80.19336456 321.78858353 80.2020874 320.66415405 C80.21151319 319.11258371 80.21806174 317.56099358 80.22192383 316.00939941 C80.23162806 313.64787554 80.26267236 311.28722315 80.29418945 308.92590332 C80.30072057 307.41418971 80.30597062 305.90246991 80.30981445 304.39074707 C80.32216125 303.6905545 80.33450806 302.99036194 80.347229 302.26895142 C80.32270967 296.81668995 78.95781225 292.89574961 75.48168945 288.69543457 C72.7837053 286.55953045 70.16807545 286.37793651 66.86499023 286.34680176 C65.62823044 286.33239044 65.62823044 286.33239044 64.3664856 286.31768799 C63.47895599 286.31343811 62.59142639 286.30918823 61.67700195 286.30480957 C60.76087128 286.2991095 59.8447406 286.29340942 58.90084839 286.28753662 C56.96247511 286.2780913 55.02408581 286.2715545 53.08569336 286.2677002 C50.12495843 286.25799446 47.16491773 286.22696671 44.2043457 286.19543457 C42.32023524 286.18890427 40.43611981 286.18365391 38.55200195 286.17980957 C37.66852081 286.16746277 36.78503967 286.15511597 35.87478638 286.14239502 C29.93815083 286.16383965 26.6861129 287.06385765 22.19628906 291.12145996 Z M117.23168945 291.44543457 C113.70117494 297.27078351 114.79565789 304.51644234 114.79638672 311.0970459 C114.79420711 313.30256651 114.77605206 315.50758092 114.75708008 317.7130127 C114.75414427 319.13032871 114.75216073 320.54764708 114.7512207 321.96496582 C114.74711182 323.24347412 114.74300293 324.52198242 114.73876953 325.8392334 C115.08343975 331.04461971 115.60985451 335.17127488 119.41918945 338.88293457 C124.1073587 341.85591995 128.43670042 341.68387606 133.8137207 341.71105957 C134.68308762 341.71675964 135.55245453 341.72245972 136.44816589 341.72833252 C138.28818548 341.73777735 140.12822193 341.74431445 141.96826172 341.74816895 C144.77317089 341.75786194 147.57734324 341.78888467 150.38208008 341.82043457 C152.17178928 341.82696625 153.96150371 341.83221607 155.7512207 341.83605957 C157.00307915 341.85457977 157.00307915 341.85457977 158.28022766 341.87347412 C163.2697377 341.85453631 166.64166616 341.24003124 170.98168945 338.50793457 C176.69763402 332.59488846 175.20145114 323.50187385 175.22192383 315.84338379 C175.23162932 313.64654669 175.26268966 311.45064636 175.29418945 309.25402832 C175.30072099 307.8412734 175.30597087 306.42851186 175.30981445 305.01574707 C175.31916016 303.74360352 175.32850586 302.47145996 175.33813477 301.1607666 C174.86940738 296.35727401 173.54600234 292.46332568 170.48168945 288.63293457 C167.75034353 286.58442513 165.15138221 286.37777916 161.86499023 286.34680176 C160.62823044 286.33239044 160.62823044 286.33239044 159.3664856 286.31768799 C158.47895599 286.31343811 157.59142639 286.30918823 156.67700195 286.30480957 C155.76087128 286.2991095 154.8447406 286.29340942 153.90084839 286.28753662 C151.96247511 286.2780913 150.02408581 286.2715545 148.08569336 286.2677002 C145.12495843 286.25799446 142.16491773 286.22696671 139.2043457 286.19543457 C137.32023524 286.18890427 135.43611981 286.18365391 133.55200195 286.17980957 C132.22678024 286.16128937 132.22678024 286.16128937 130.87478638 286.14239502 C125.00307651 286.16360512 121.32549078 286.91301167 117.23168945 291.44543457 Z M212.23168945 291.44543457 C208.64214264 297.36818681 209.75868763 304.83016281 209.74145508 311.52429199 C209.73176609 313.80241645 209.70072788 316.07963157 209.66918945 318.35754395 C209.6626567 319.82042926 209.6574073 321.28332097 209.65356445 322.74621582 C209.64121765 323.41937332 209.62887085 324.09253082 209.6161499 324.78608704 C209.63938849 329.79794147 210.73562023 333.12345161 212.98168945 337.50793457 C217.68434801 341.91667696 222.67944343 341.68004775 228.8137207 341.71105957 C229.68308762 341.71675964 230.55245453 341.72245972 231.44816589 341.72833252 C233.28818548 341.73777735 235.12822193 341.74431445 236.96826172 341.74816895 C239.77317089 341.75786194 242.57734324 341.78888467 245.38208008 341.82043457 C247.17178928 341.82696625 248.96150371 341.83221607 250.7512207 341.83605957 C252.00307915 341.85457977 252.00307915 341.85457977 253.28022766 341.87347412 C259.16296289 341.85114605 263.26363986 340.88730655 267.82739258 336.89221191 C269.64319771 333.14154506 269.44947261 329.47500704 269.45043945 325.35949707 C269.45805298 324.46934906 269.4656665 323.57920105 269.47351074 322.66207886 C269.48430429 320.78097331 269.48716787 318.89980788 269.48266602 317.01867676 C269.48169505 314.14948798 269.52329451 311.28298637 269.56762695 308.41418457 C269.57283533 306.58346096 269.57552212 304.75272809 269.57543945 302.92199707 C269.59183472 302.06868805 269.60822998 301.21537903 269.62512207 300.33621216 C269.57665772 296.13067118 269.29289347 293.3412515 266.63208008 289.98205566 C263.3672887 286.93439577 261.16780037 286.38735988 256.86499023 286.34680176 C255.62823044 286.33239044 255.62823044 286.33239044 254.3664856 286.31768799 C253.47895599 286.31343811 252.59142639 286.30918823 251.67700195 286.30480957 C250.76087128 286.2991095 249.8447406 286.29340942 248.90084839 286.28753662 C246.96247511 286.2780913 245.02408581 286.2715545 243.08569336 286.2677002 C240.12495843 286.25799446 237.16491773 286.22696671 234.2043457 286.19543457 C232.32023524 286.18890427 230.43611981 286.18365391 228.55200195 286.17980957 C227.22678024 286.16128937 227.22678024 286.16128937 225.87478638 286.14239502 C220.00307651 286.16360512 216.32549078 286.91301167 212.23168945 291.44543457 Z M22.13598633 381.12365723 C20.3201812 384.87432408 20.5139063 388.5408621 20.51293945 392.65637207 C20.50532593 393.54652008 20.4977124 394.43666809 20.48986816 395.35379028 C20.47907461 397.23489583 20.47621104 399.11606126 20.48071289 400.99719238 C20.48168385 403.86638116 20.4400844 406.73288277 20.39575195 409.60168457 C20.39054358 411.43240818 20.38785678 413.26314105 20.38793945 415.09387207 C20.37154419 415.94718109 20.35514893 416.80049011 20.33825684 417.67965698 C20.38672118 421.88519796 20.67048543 424.67461764 23.33129883 428.03381348 C26.61523974 431.09934933 28.84752488 431.62552226 33.17431641 431.70080566 C34.43626579 431.72490005 34.43626579 431.72490005 35.72370911 431.7494812 C39.5657963 431.79409731 43.40771419 431.8349891 47.25 431.85803223 C49.2742055 431.87459081 51.29835256 431.90187952 53.32226562 431.94006348 C56.24680791 431.99492399 59.16998267 432.01671928 62.0949707 432.03137207 C62.99516434 432.05404144 63.89535797 432.07671082 64.8228302 432.10006714 C69.04525906 432.08592198 72.05999707 431.92203889 75.47460938 429.28771973 C79.89895041 424.38212551 80.29089279 420.25927713 80.2824707 413.82824707 C80.28889839 412.73176346 80.28889839 412.73176346 80.29545593 411.61312866 C80.30117975 410.0717268 80.3017139 408.53029795 80.29736328 406.9888916 C80.29420855 404.64710715 80.31766676 402.30659388 80.34301758 399.96496582 C80.34529152 398.46106115 80.34599363 396.95715311 80.3449707 395.45324707 C80.35418045 394.76135284 80.3633902 394.06945862 80.37287903 393.3565979 C80.32545117 388.30041288 79.2521812 384.92991012 76.98168945 380.50793457 C72.2790309 376.09919218 67.28393548 376.33582139 61.1496582 376.30480957 C60.28029129 376.2991095 59.41092438 376.29340942 58.51521301 376.28753662 C56.67519343 376.27809179 54.83515697 376.27155469 52.99511719 376.2677002 C50.19020801 376.2580072 47.38603566 376.22698447 44.58129883 376.19543457 C42.79158963 376.18890289 41.0018752 376.18365307 39.2121582 376.17980957 C38.37758591 376.16746277 37.54301361 376.15511597 36.68315125 376.14239502 C30.80041601 376.16472309 26.69973904 377.12856259 22.13598633 381.12365723 Z M117.16918945 381.38293457 C113.7268846 387.54284851 114.75977219 395.32035761 114.74145508 402.17248535 C114.73174959 404.36932245 114.70068924 406.56522278 114.66918945 408.76184082 C114.66265792 410.17459574 114.65740804 411.58735728 114.65356445 413.00012207 C114.64421875 414.27226562 114.63487305 415.54440918 114.62524414 416.85510254 C115.13998643 422.13015326 116.58278117 425.88349711 120.05029297 429.91003418 C124.31216381 432.2331744 128.09959445 432.10019584 132.8840332 432.07434082 C133.8393544 432.0805394 134.7946756 432.08673798 135.77894592 432.09312439 C137.7953286 432.10021465 139.81176992 432.09706242 141.828125 432.08435059 C144.9058053 432.07049483 147.98043811 432.10455541 151.05786133 432.1427002 C153.02075269 432.14365155 154.98364785 432.14179168 156.9465332 432.13684082 C158.32022316 432.15672813 158.32022316 432.15672813 159.72166443 432.17701721 C163.92910736 432.1160071 167.05471701 431.93050229 170.48388672 429.34362793 C174.9349912 424.29039964 175.23559663 419.73718666 175.24731445 413.16809082 C175.24922791 412.48290878 175.25114136 411.79772675 175.25311279 411.09178162 C175.25446654 409.65049876 175.25082701 408.20920338 175.24243164 406.76794434 C175.2317366 404.58007978 175.24234551 402.39303927 175.25512695 400.2052002 C175.25380489 398.79699528 175.25124154 397.38879088 175.24731445 395.98059082 C175.24505859 394.71481201 175.24280273 393.4490332 175.24047852 392.14489746 C174.8713411 386.95712378 174.34164571 382.83302015 170.54418945 379.13293457 C165.85602021 376.1599492 161.52667848 376.33199308 156.1496582 376.30480957 C155.28029129 376.2991095 154.41092438 376.29340942 153.51521301 376.28753662 C151.67519343 376.27809179 149.83515697 376.27155469 147.99511719 376.2677002 C145.19020801 376.2580072 142.38603566 376.22698447 139.58129883 376.19543457 C137.79158963 376.18890289 136.0018752 376.18365307 134.2121582 376.17980957 C133.37758591 376.16746277 132.54301361 376.15511597 131.68315125 376.14239502 C125.87223862 376.16445049 121.38965907 377.01693152 117.16918945 381.38293457 Z M212.16918945 381.44543457 C208.71224083 387.4496085 209.75873959 394.80997901 209.74145508 401.52429199 C209.73176609 403.80241645 209.70072788 406.07963157 209.66918945 408.35754395 C209.6626567 409.82042926 209.6574073 411.28332097 209.65356445 412.74621582 C209.64121765 413.41937332 209.62887085 414.09253082 209.6161499 414.78608704 C209.644089 420.81169648 211.10825005 425.3405059 215.06176758 429.91442871 C219.27872908 432.21577551 222.96777518 432.06316277 227.70043945 432.00402832 C228.63593628 432.00548355 229.57143311 432.00693878 230.53527832 432.00843811 C232.50882082 432.00678163 234.48237656 431.99524844 236.45581055 431.9744873 C239.47150715 431.94553233 242.48544482 431.95388387 245.5012207 431.96691895 C247.42180214 431.96068108 249.34237804 431.95228977 251.26293945 431.94152832 C252.16202026 431.94446396 253.06110107 431.9473996 253.98742676 431.95042419 C259.94393465 431.86094586 263.26160592 430.96616403 267.76708984 426.89440918 C269.67568466 423.14435604 269.42944047 419.47411869 269.4152832 415.32434082 C269.42052505 414.43182114 269.42576691 413.53930145 269.4311676 412.61973572 C269.43758344 410.73441609 269.43625646 408.8490564 269.42773438 406.96374512 C269.41922912 404.08386699 269.44798327 401.20597593 269.47973633 398.32629395 C269.48134863 396.49231016 269.48077026 394.65832288 269.4777832 392.82434082 C269.48901718 391.96587051 269.50025116 391.10740021 269.51182556 390.22291565 C269.46592758 386.27177233 269.28250892 384.02559705 267.26318359 380.55065918 C262.25512237 376.06671608 257.36644233 376.20011505 250.9543457 376.20715332 C250.08780869 376.20286819 249.22127167 376.19858307 248.32847595 376.19416809 C246.50040559 376.18843914 244.67231245 376.18791393 242.84423828 376.19226074 C240.05697509 376.19542008 237.27077466 376.17194625 234.48364258 376.14660645 C232.70304495 376.14433314 230.92244449 376.1436301 229.1418457 376.14465332 C228.31354752 376.13544357 227.48524933 376.12623383 226.6318512 376.116745 C220.8399634 376.16274689 216.31085876 377.01813289 212.16918945 381.44543457 Z " fill="#000000" transform="translate(111.018310546875,14.4920654296875)"/>
</svg>
